{
    "asset" : {
        "generator" : "Khronos glTF Blender I/O v1.1.45",
        "version" : "2.0"
    },
    "scene" : 0,
    "scenes" : [
        {
            "name" : "Scene",
            "nodes" : [
                0,
                1,
                2,
                3,
                4,
                5,
                6,
                7,
                8,
                9,
                10,
                11,
                12
            ]
        }
    ],
    "nodes" : [
        {
            "mesh" : 0,
            "name" : "Cube",
            "translation" : [
                -3.076756715774536,
                0,
                0
            ]
        },
        {
            "name" : "Light",
            "rotation" : [
                0.16907575726509094,
                0.7558803558349609,
                -0.27217137813568115,
                0.570947527885437
            ],
            "translation" : [
                -3.746314525604248,
                1.4654487371444702,
                -1.7084635496139526
            ]
        },
        {
            "name" : "Camera",
            "rotation" : [
                0.483536034822464,
                0.33687159419059753,
                -0.20870360732078552,
                0.7804827094078064
            ],
            "translation" : [
                7.358891487121582,
                4.958309173583984,
                6.925790786743164
            ]
        },
        {
            "name" : "GPencil",
            "translation" : [
                0.474724680185318,
                0,
                0
            ]
        },
        {
            "name" : "Point",
            "translation" : [
                -1.6338932514190674,
                0.22547250986099243,
                -0.1360313594341278
            ]
        },
        {
            "name" : "Point.001",
            "translation" : [
                -3.134756326675415,
                0.3273155689239502,
                1.1175038814544678
            ]
        },
        {
            "name" : "GPencil.001",
            "translation" : [
                -3.050469160079956,
                0,
                0
            ]
        },
        {
            "mesh" : 1,
            "name" : "Cube.001",
            "translation" : [
                0,
                0,
                -4.165520668029785
            ]
        },
        {
            "name" : "Point.002",
            "translation" : [
                -0.04373585432767868,
                -1.2417247295379639,
                -2.7248740196228027
            ]
        },
        {
            "name" : "Point.003",
            "translation" : [
                -0.6622428297996521,
                -0.4275795817375183,
                -2.9718832969665527
            ]
        },
        {
            "name" : "Point.004",
            "translation" : [
                0.7549691200256348,
                -0.5173647999763489,
                -3.1083197593688965
            ]
        },
        {
            "mesh" : 2,
            "name" : "Cube.002",
            "translation" : [
                1.8240139484405518,
                0,
                -4.165520668029785
            ]
        },
        {
            "mesh" : 3,
            "name" : "Cube.003"
        }
    ],
    "materials" : [
        {
            "doubleSided" : true,
            "emissiveFactor" : [
                0,
                0,
                0
            ],
            "name" : "Material",
            "pbrMetallicRoughness" : {
                "baseColorFactor" : [
                    0.800000011920929,
                    0.800000011920929,
                    0.800000011920929,
                    1
                ],
                "metallicFactor" : 0,
                "roughnessFactor" : 0.4000000059604645
            }
        }
    ],
    "meshes" : [
        {
            "name" : "Cube",
            "primitives" : [
                {
                    "attributes" : {
                        "POSITION" : 0,
                        "NORMAL" : 1,
                        "TEXCOORD_0" : 2
                    },
                    "indices" : 3,
                    "material" : 0
                }
            ]
        },
        {
            "name" : "Cube.001",
            "primitives" : [
                {
                    "attributes" : {
                        "POSITION" : 4,
                        "NORMAL" : 5,
                        "TEXCOORD_0" : 6
                    },
                    "indices" : 7
                }
            ]
        },
        {
            "name" : "Cube.002",
            "primitives" : [
                {
                    "attributes" : {
                        "POSITION" : 8,
                        "NORMAL" : 9,
                        "TEXCOORD_0" : 10
                    },
                    "indices" : 11
                }
            ]
        },
        {
            "name" : "Cube.003",
            "primitives" : [
                {
                    "attributes" : {
                        "POSITION" : 12,
                        "NORMAL" : 13,
                        "TEXCOORD_0" : 14
                    },
                    "indices" : 15
                }
            ]
        }
    ],
    "accessors" : [
        {
            "bufferView" : 0,
            "componentType" : 5126,
            "count" : 441,
            "max" : [
                0.8222376704216003,
                1.05055570602417,
                0.9562552571296692
            ],
            "min" : [
                -0.8231331706047058,
                -0.9864371418952942,
                -0.7426326870918274
            ],
            "type" : "VEC3"
        },
        {
            "bufferView" : 1,
            "componentType" : 5126,
            "count" : 441,
            "type" : "VEC3"
        },
        {
            "bufferView" : 2,
            "componentType" : 5126,
            "count" : 441,
            "type" : "VEC2"
        },
        {
            "bufferView" : 3,
            "componentType" : 5123,
            "count" : 2304,
            "type" : "SCALAR"
        },
        {
            "bufferView" : 4,
            "componentType" : 5126,
            "count" : 1649,
            "max" : [
                0.9999229311943054,
                1.0383472442626953,
                0.9785209894180298
            ],
            "min" : [
                -0.999923050403595,
                -0.9998878240585327,
                -1.0007997751235962
            ],
            "type" : "VEC3"
        },
        {
            "bufferView" : 5,
            "componentType" : 5126,
            "count" : 1649,
            "type" : "VEC3"
        },
        {
            "bufferView" : 6,
            "componentType" : 5126,
            "count" : 1649,
            "type" : "VEC2"
        },
        {
            "bufferView" : 7,
            "componentType" : 5123,
            "count" : 9216,
            "type" : "SCALAR"
        },
        {
            "bufferView" : 8,
            "componentType" : 5126,
            "count" : 1649,
            "max" : [
                1.0063194036483765,
                1.0211058855056763,
                0.9647819995880127
            ],
            "min" : [
                -1.0063180923461914,
                -0.9998878240585327,
                -1.0008691549301147
            ],
            "type" : "VEC3"
        },
        {
            "bufferView" : 9,
            "componentType" : 5126,
            "count" : 1649,
            "type" : "VEC3"
        },
        {
            "bufferView" : 10,
            "componentType" : 5126,
            "count" : 1649,
            "type" : "VEC2"
        },
        {
            "bufferView" : 11,
            "componentType" : 5123,
            "count" : 9216,
            "type" : "SCALAR"
        },
        {
            "bufferView" : 12,
            "componentType" : 5126,
            "count" : 24,
            "max" : [
                1,
                1,
                1
            ],
            "min" : [
                -1,
                -1,
                -1
            ],
            "type" : "VEC3"
        },
        {
            "bufferView" : 13,
            "componentType" : 5126,
            "count" : 24,
            "type" : "VEC3"
        },
        {
            "bufferView" : 14,
            "componentType" : 5126,
            "count" : 24,
            "type" : "VEC2"
        },
        {
            "bufferView" : 15,
            "componentType" : 5123,
            "count" : 36,
            "type" : "SCALAR"
        }
    ],
    "bufferViews" : [
        {
            "buffer" : 0,
            "byteLength" : 5292,
            "byteOffset" : 0
        },
        {
            "buffer" : 0,
            "byteLength" : 5292,
            "byteOffset" : 5292
        },
        {
            "buffer" : 0,
            "byteLength" : 3528,
            "byteOffset" : 10584
        },
        {
            "buffer" : 0,
            "byteLength" : 4608,
            "byteOffset" : 14112
        },
        {
            "buffer" : 0,
            "byteLength" : 19788,
            "byteOffset" : 18720
        },
        {
            "buffer" : 0,
            "byteLength" : 19788,
            "byteOffset" : 38508
        },
        {
            "buffer" : 0,
            "byteLength" : 13192,
            "byteOffset" : 58296
        },
        {
            "buffer" : 0,
            "byteLength" : 18432,
            "byteOffset" : 71488
        },
        {
            "buffer" : 0,
            "byteLength" : 19788,
            "byteOffset" : 89920
        },
        {
            "buffer" : 0,
            "byteLength" : 19788,
            "byteOffset" : 109708
        },
        {
            "buffer" : 0,
            "byteLength" : 13192,
            "byteOffset" : 129496
        },
        {
            "buffer" : 0,
            "byteLength" : 18432,
            "byteOffset" : 142688
        },
        {
            "buffer" : 0,
            "byteLength" : 288,
            "byteOffset" : 161120
        },
        {
            "buffer" : 0,
            "byteLength" : 288,
            "byteOffset" : 161408
        },
        {
            "buffer" : 0,
            "byteLength" : 192,
            "byteOffset" : 161696
        },
        {
            "buffer" : 0,
            "byteLength" : 72,
            "byteOffset" : 161888
        }
    ],
    "buffers" : [
        {
            "byteLength" : 161960,
            "uri" : "data:application/octet-stream;base64,"
        }
    ]
}
